<svg width="23" height="23" viewBox="0 0 23 23" fill="none" xmlns="http://www.w3.org/2000/svg">
<rect x="0.5" y="0.5" width="22" height="22" rx="4.5" fill="#D8DFEC"/>
<path d="M7.75738 14.3156C7.75738 15.2265 7.76145 16.1444 7.75738 17.0622C7.7533 17.7431 7.10325 18.1788 6.48171 17.9249C6.13777 17.7849 5.92302 17.4561 5.92244 17.0535C5.92244 16.1444 5.92244 15.2358 5.92244 14.4144C5.62622 14.207 5.34921 14.0658 5.15308 13.8544C5.03669 13.7248 4.99886 13.4797 5.00003 13.2874C5.00003 12.8343 5.32069 12.545 5.92186 12.4113V12.075C5.92186 10.0336 5.92186 7.99208 5.92186 5.95033C5.92186 5.44957 6.26114 5.05861 6.72788 5.00691C6.95178 4.97927 7.17802 5.03514 7.36318 5.1638C7.54835 5.29245 7.6794 5.48483 7.73119 5.70402C7.75229 5.80777 7.76089 5.91367 7.7568 6.01946C7.7568 8.03332 7.7568 10.0458 7.7568 12.057V12.3957C8.43537 12.5984 8.69842 12.8831 8.68794 13.3832C8.67863 13.8596 8.40103 14.1425 7.75738 14.3156ZM12.4131 8.37335C12.4131 7.56994 12.4131 6.7671 12.4131 5.96427C12.4131 5.40832 12.0307 5.00923 11.5047 5.00516C10.9646 5.0011 10.5793 5.40251 10.577 5.97472C10.577 6.40054 10.577 6.82636 10.577 7.25275V8.69228C9.9735 8.83112 9.65866 9.11636 9.65517 9.56773C9.65517 9.7606 9.68834 10.0057 9.80706 10.1353C10.0026 10.3491 10.2802 10.4885 10.5229 10.6581L10.577 10.6058V10.9544C10.577 12.9683 10.577 14.9808 10.577 16.9919C10.577 17.592 10.9512 17.9969 11.5006 17.9946C12.05 17.9923 12.4137 17.588 12.4137 16.9815C12.4137 14.9595 12.4137 12.9373 12.4137 10.9149V10.5855C13.0259 10.4583 13.332 10.1487 13.3448 9.67404C13.3582 9.16631 13.08 8.86423 12.4137 8.68647L12.4131 8.37335ZM17.0688 12.0506C17.0688 10.0367 17.0688 8.02422 17.0688 6.01306C17.0688 5.41065 16.6987 5.00516 16.1511 5.00516C15.6034 5.00516 15.2321 5.41181 15.2321 6.01249C15.2321 8.03487 15.2321 10.0571 15.2321 12.0791V12.4131C14.6089 12.5455 14.3051 12.8598 14.301 13.349C14.2969 13.8474 14.5838 14.1501 15.2321 14.311V14.6189C15.2321 15.4414 15.2263 16.264 15.2321 17.086C15.232 17.237 15.2694 17.3856 15.3409 17.5186C15.4124 17.6517 15.5158 17.7649 15.6419 17.8482C15.768 17.9316 15.9129 17.9824 16.0635 17.9962C16.2141 18.01 16.3657 17.9863 16.5049 17.9272C16.8494 17.7884 17.0677 17.459 17.0688 17.0558C17.0688 16.138 17.0688 15.2201 17.0688 14.3092C17.7177 14.146 18.0035 13.8445 18 13.3472C17.9965 12.8499 17.6927 12.5426 17.0688 12.4108V12.0506Z" fill="#444444"/>
<rect x="0.5" y="0.5" width="22" height="22" rx="4.5" stroke="#494848"/>
</svg>
