<svg width="26" height="26" viewBox="0 0 26 26" fill="none" xmlns="http://www.w3.org/2000/svg">
<path d="M12.992 26.0005C5.96461 26.0005 0.155479 20.3769 0.00294175 13.2915C-0.153663 6.01398 5.62547 0.165699 12.6905 0.00350066C19.9289 -0.162257 25.8377 5.57976 25.9968 12.6977C26.1616 20.0825 20.1994 26.0132 12.992 26.0005ZM18.5891 4.88317C15.2333 2.42275 9.65144 2.24224 5.89495 6.14008C2.0261 10.1569 2.57878 15.8125 5.1587 18.9649C9.63212 14.2746 14.1089 9.58065 18.5891 4.88317ZM7.40304 21.1248C11.3304 23.9214 17.3429 23.506 20.8126 19.0432C24.055 14.8739 23.0605 9.64743 20.8284 7.04819L7.40304 21.1248Z" fill="url(#paint0_linear_791_776)"/>
<defs>
<linearGradient id="paint0_linear_791_776" x1="-0.000167847" y1="0" x2="26.0003" y2="26.0003" gradientUnits="userSpaceOnUse">
<stop stop-color="#3D9E83"/>
<stop offset="1" stop-color="#278DB6"/>
</linearGradient>
</defs>
</svg>
