<svg width="30" height="27" viewBox="0 0 30 27" fill="none" xmlns="http://www.w3.org/2000/svg">
<path d="M1.39775 11.5092C0.25253 10.2251 0.676085 8.26048 2.48024 7.65125C1.86218 6.87224 1.6874 6.01475 2.12012 5.10305C2.54297 4.20633 3.29987 3.79828 4.26467 3.80113C4.11456 3.46869 3.92921 3.17407 3.84182 2.85233C3.75142 2.51853 3.73849 2.1681 3.80404 1.82841C3.86958 1.48872 4.01184 1.16897 4.21968 0.894137C4.42752 0.619308 4.69532 0.396846 5.00216 0.24413C5.309 0.0914135 5.64656 0.0125778 5.98848 0.0137853C8.51947 -0.013323 11.0502 -0.000717576 13.5808 0.0515973C15.1263 0.0808461 16.5033 0.651551 17.7176 1.62104C18.0207 1.86359 18.3284 2.10138 18.6409 2.33442C19.2209 2.76245 19.8587 3.03924 20.643 3.0478L20.643 3.42661C20.643 7.23464 20.6452 11.0424 20.6494 14.85C20.6494 15.1132 20.5662 15.2402 20.3442 15.3672C18.3195 16.5229 16.5386 17.9618 15.2411 19.9499C14.3842 21.2654 13.9127 22.7079 13.888 24.2952C13.8676 25.5899 12.8711 26.593 11.6363 26.5908C10.3868 26.5908 9.3889 25.5593 9.39031 24.2531C9.39031 21.9538 9.56509 19.6732 10.4122 17.5102C10.7166 16.734 10.0986 15.9322 9.31772 15.9465C8.52065 15.9607 7.72358 15.9465 6.92721 15.9465C5.34505 15.9465 3.76289 15.9607 2.18072 15.9357C1.24834 15.9215 0.573191 15.4292 0.207427 14.5768C-0.158338 13.7243 -0.04135 12.8946 0.566144 12.1848C0.793073 11.9244 1.10598 11.7411 1.39775 11.5092ZM29.9993 1.16519C29.9377 1.1524 29.8753 1.14358 29.8125 1.13879C28.0197 1.13879 26.2261 1.12595 24.4325 1.14236C23.5163 1.15092 22.8997 1.8058 22.8989 2.73391C22.8952 6.98138 22.8952 11.2291 22.8989 15.477C22.8989 16.4537 23.5128 17.075 24.4818 17.0836C25.3141 17.0914 26.1464 17.0836 26.9787 17.0836L30 17.0836L29.9993 1.16519Z" fill="url(#paint0_linear_791_773)"/>
<defs>
<linearGradient id="paint0_linear_791_773" x1="30" y1="26.5908" x2="3.60139" y2="-3.19223" gradientUnits="userSpaceOnUse">
<stop stop-color="#3D9E83"/>
<stop offset="1" stop-color="#278DB6"/>
</linearGradient>
</defs>
</svg>
