<svg width="30" height="27" viewBox="0 0 30 27" fill="none" xmlns="http://www.w3.org/2000/svg">
<path d="M28.6023 15.0816C29.7475 16.3657 29.3239 18.3303 27.5198 18.9396C28.1378 19.7186 28.3126 20.5761 27.8799 21.4878C27.457 22.3845 26.7001 22.7925 25.7353 22.7897C25.8854 23.1221 26.0708 23.4168 26.1582 23.7385C26.2486 24.0723 26.2615 24.4227 26.196 24.7624C26.1304 25.1021 25.9882 25.4219 25.7803 25.6967C25.5725 25.9715 25.3047 26.194 24.9978 26.3467C24.691 26.4994 24.3534 26.5782 24.0115 26.577C21.4805 26.6041 18.9498 26.5915 16.4192 26.5392C14.8737 26.51 13.4967 25.9393 12.2824 24.9698C11.9793 24.7272 11.6716 24.4894 11.3591 24.2564C10.7791 23.8284 10.1413 23.5516 9.35696 23.543V23.1642C9.35696 19.3562 9.35484 15.5484 9.35061 11.7408C9.35061 11.4776 9.43378 11.3506 9.65577 11.2236C11.6805 10.068 13.4614 8.62906 14.7589 6.64087C15.6158 5.32539 16.0873 3.88294 16.112 2.29566C16.1324 1.00088 17.1289 -0.00213673 18.3637 3.41841e-06C19.6132 3.41841e-06 20.6111 1.03155 20.6097 2.33775C20.6097 4.63698 20.4349 6.91766 19.5878 9.08064C19.2834 9.85679 19.9014 10.6586 20.6823 10.6444C21.4793 10.6301 22.2764 10.6444 23.0728 10.6444C24.655 10.6444 26.2371 10.6301 27.8193 10.6551C28.7517 10.6693 29.4268 11.1616 29.7926 12.0141C30.1583 12.8666 30.0414 13.6962 29.4339 14.406C29.2069 14.6664 28.894 14.8498 28.6023 15.0816ZM0.000705438 25.4256C0.0623436 25.4384 0.124719 25.4472 0.187461 25.452C1.98034 25.452 3.77393 25.4649 5.56752 25.4485C6.48369 25.4399 7.10035 24.785 7.10106 23.8569C7.10481 19.6094 7.10481 15.3617 7.10106 11.1138C7.10106 10.1372 6.48722 9.5158 5.51819 9.50724C4.68588 9.49939 3.85357 9.50724 3.02126 9.50724H0L0.000705438 25.4256Z" fill="url(#paint0_linear_791_770)"/>
<defs>
<linearGradient id="paint0_linear_791_770" x1="0" y1="0" x2="26.3986" y2="29.783" gradientUnits="userSpaceOnUse">
<stop stop-color="#3D9E83"/>
<stop offset="1" stop-color="#278DB6"/>
</linearGradient>
</defs>
</svg>
