<svg width="25" height="25" viewBox="0 0 25 25" fill="none" xmlns="http://www.w3.org/2000/svg">
<path d="M12.5023 6.18596e-05C19.3831 -0.0214938 24.9819 5.59318 24.9989 12.5205C25.0114 19.3752 19.4058 24.9796 12.5193 25.0001C5.63284 25.0205 0.00568414 19.4183 1.16031e-05 12.5069C-0.00222739 10.8642 0.319589 9.23723 0.947038 7.71912C1.57449 6.20101 2.49525 4.82158 3.65657 3.65983C4.8179 2.49808 6.19699 1.57683 7.71487 0.948827C9.23276 0.320827 10.8596 -0.00158099 12.5023 6.18596e-05ZM12.3582 21.567L12.3809 21.4332C13.4371 21.381 14.4967 21.3651 15.5484 21.2687C16.8815 21.145 18.2145 20.9714 19.425 20.3316C20.1988 19.922 20.6333 19.3355 20.6299 18.3904C20.6299 17.4102 20.1409 16.7511 19.4568 16.1781C18.2973 15.2081 16.9416 14.5898 15.5416 14.0714C14.3901 13.6414 14.1802 12.7372 14.9744 11.7536C16.3244 10.0677 17.0165 8.16851 16.7646 5.97551C16.4946 3.62821 14.6885 2.07848 12.247 2.11819C9.96212 2.1613 8.19569 3.82675 8.02098 6.10371C7.85194 8.30692 8.5281 10.2299 9.94964 11.9056C10.5623 12.6294 10.3524 13.571 9.4845 13.9398C9.13847 14.0872 8.78223 14.2109 8.44075 14.3686C7.06799 15.0028 5.69524 15.6506 4.69687 16.8475C3.68149 18.0705 4.01617 19.6554 5.43884 20.3645C5.82457 20.5562 6.233 20.7536 6.65276 20.8183C8.54966 21.0928 10.4556 21.3209 12.3582 21.567Z" fill="#E5EBF4"/>
</svg>
