<svg width="23" height="19" viewBox="0 0 23 19" fill="none" xmlns="http://www.w3.org/2000/svg">
<path fill-rule="evenodd" clip-rule="evenodd" d="M22.973 4.05286C22.9691 3.82203 22.9652 3.5894 22.9652 3.35444H2.91777C2.89292 3.35444 2.86807 3.35465 2.84322 3.35486C2.76247 3.35555 2.68172 3.35623 2.60097 3.34968C2.50617 3.34394 2.41399 3.3192 2.33114 3.27726C2.24828 3.23533 2.17683 3.17726 2.122 3.10727C2.06717 3.03729 2.03034 2.95715 2.01419 2.87271C1.99803 2.78826 2.00296 2.70162 2.02861 2.61911C2.11626 2.29622 2.35597 2.1581 2.8354 2.1581H22.9704C23.1172 1.34848 22.5702 0.482666 21.3315 0.482666C14.7751 0.487111 8.21897 0.489334 1.66323 0.489334C1.49664 0.484053 1.32996 0.497168 1.1669 0.528387C0.397068 0.708408 0.00528641 1.2018 0.00528641 2.00285C0.0109185 6.9736 0.00915653 11.944 4.40778e-06 16.9142C-0.00210762 17.9086 0.755057 18.4267 1.67485 18.4267C8.22214 18.4216 14.7694 18.4191 21.3167 18.4191C21.492 18.4247 21.6673 18.41 21.8384 18.3753C22.6051 18.1886 23 17.7009 23 16.9256V13.71C22.9989 12.7003 22.3643 12.1288 21.247 12.1288C20.9954 12.1283 20.7437 12.1289 20.4921 12.1295C19.8989 12.1309 19.3057 12.1324 18.7126 12.1183C18.3377 12.1112 17.9807 11.9724 17.7175 11.7316C17.4542 11.4908 17.3055 11.1669 17.3028 10.8287C17.2859 9.90792 17.2859 8.98718 17.3028 8.06643C17.2959 7.82145 17.3735 7.58059 17.5248 7.37706C17.6761 7.17353 17.8937 7.01736 18.1476 6.93011C18.4173 6.83643 18.7035 6.78739 18.9924 6.78533C19.3674 6.77527 19.7428 6.7749 20.118 6.77452C20.6315 6.77401 21.1448 6.77349 21.6568 6.74818C22.3062 6.71675 22.906 6.21573 22.9504 5.63471C22.9909 5.11249 22.982 4.58748 22.973 4.05286ZM19.7736 10.9489H20.7613C20.865 10.9489 20.9688 10.9492 21.0726 10.9495C21.3098 10.9502 21.5471 10.9509 21.7842 10.948C22.1684 10.9438 22.4191 10.716 22.4258 10.3564C22.4335 9.96972 22.4335 9.58305 22.4258 9.19637C22.4191 8.83722 22.1713 8.60243 21.8016 8.60243C21.1235 8.59965 20.4453 8.59965 19.7669 8.60243C19.3562 8.60475 19.1084 8.84511 19.1084 9.23906V10.3063C19.1099 10.7081 19.3586 10.9489 19.7736 10.9489ZM19.8662 9.46554C19.9499 9.39198 20.0599 9.35254 20.1732 9.35552C20.4022 9.36248 20.5738 9.5569 20.5647 9.80005C20.5636 9.85134 20.5517 9.9019 20.5297 9.94859C20.5076 9.99529 20.4758 10.0371 20.4363 10.0716C20.3968 10.106 20.3504 10.1323 20.2999 10.1488C20.2494 10.1653 20.196 10.1717 20.1429 10.1675C19.8941 10.1559 19.7143 9.9773 19.7245 9.74994C19.7317 9.64105 19.7825 9.5391 19.8662 9.46554Z" fill="#E5EBF4"/>
</svg>
